<svg width="286" height="52" viewBox="0 0 286 52" fill="none" xmlns="http://www.w3.org/2000/svg">
<g filter="url(#filter0_d_14_977)">
<path fill-rule="evenodd" clip-rule="evenodd" d="M108.142 9.78278C109.818 9.78278 111.39 10.0908 112.859 10.707C114.343 11.3081 115.633 12.1646 116.731 13.2766C117.844 14.3887 118.719 15.7336 119.357 17.3115C119.995 18.8743 120.314 20.61 120.314 22.5184C120.314 24.502 119.995 26.2903 119.357 27.8832C118.719 29.461 117.844 30.806 116.731 31.918C115.633 33.015 114.343 33.8565 112.859 34.4426C111.39 35.0287 109.818 35.3217 108.142 35.3217C107.607 35.3217 107.073 35.2616 106.539 35.1414C106.02 35.0212 105.501 34.8634 104.982 34.668C104.477 34.4576 103.973 34.2247 103.469 33.9693V33.9693C102.83 33.636 102.044 34.0883 102.044 34.8086V40.9403C102.044 42.6301 100.674 44 98.9846 44V44C97.2948 44 95.9249 42.6301 95.9249 40.9403V11.6623C95.9249 11.1098 96.3728 10.6619 96.9253 10.6619V10.6619C97.222 10.6619 97.5035 10.7936 97.6935 11.0215L98.3208 11.7734C99.1311 12.7448 100.592 12.8168 101.622 12.082V12.082C102.274 11.6161 102.949 11.2179 103.647 10.8873C104.359 10.5417 105.093 10.2712 105.85 10.0758C106.606 9.88046 107.37 9.78278 108.142 9.78278ZM108.142 15.959C107.311 15.959 106.525 16.1093 105.783 16.4098C105.056 16.7104 104.418 17.1462 103.869 17.7172C103.32 18.2732 102.883 18.957 102.556 19.7684C102.245 20.5799 102.089 21.4966 102.089 22.5184C102.089 23.4952 102.245 24.3893 102.556 25.2008C102.883 26.0123 103.32 26.7035 103.869 27.2746C104.418 27.8456 105.056 28.2889 105.783 28.6045C106.525 28.9201 107.311 29.0779 108.142 29.0779C108.972 29.0779 109.759 28.9201 110.5 28.6045C111.242 28.2889 111.887 27.8456 112.436 27.2746C112.985 26.7035 113.415 26.0123 113.727 25.2008C114.053 24.3893 114.216 23.4952 114.216 22.5184C114.216 21.4966 114.053 20.5799 113.727 19.7684C113.415 18.957 112.985 18.2732 112.436 17.7172C111.887 17.1462 111.242 16.7104 110.5 16.4098C109.759 16.1093 108.972 15.959 108.142 15.959Z" fill="white"/>
<path d="M20.5113 2.02869C22.4844 2.02869 24.3907 2.37432 26.2302 3.06557C27.2792 3.45119 28.2703 3.93942 29.2035 4.53028C30.436 5.31064 30.6697 6.94917 29.9189 8.19997V8.19997C28.8781 9.93404 26.3787 10.1215 24.5168 9.33196V9.33196C23.241 8.77595 21.9058 8.49795 20.5113 8.49795C19.102 8.49795 17.7817 8.76844 16.5504 9.30942C15.3191 9.85041 14.2436 10.5867 13.3238 11.5184C12.404 12.4351 11.6771 13.5246 11.143 14.7869C10.609 16.0341 10.342 17.3641 10.342 18.7766C10.342 20.1892 10.609 21.5191 11.143 22.7664C11.6771 23.9986 12.404 25.0806 13.3238 26.0123C14.2436 26.944 15.3191 27.6803 16.5504 28.2213C17.7817 28.7623 19.102 29.0328 20.5113 29.0328C21.9058 29.0328 23.241 28.7623 24.5168 28.2213C24.5348 28.2135 24.5527 28.2056 24.5707 28.1976C26.4159 27.3809 28.8757 27.5928 29.9142 29.323V29.323C30.6667 30.5766 30.4269 32.2181 29.1901 32.9979C28.2608 33.5838 27.2742 34.0729 26.2302 34.4652C24.3907 35.1564 22.4844 35.502 20.5113 35.502C18.9982 35.502 17.5369 35.2992 16.1276 34.8934C14.7331 34.5027 13.4202 33.9467 12.1889 33.2254C10.9724 32.4891 9.85981 31.61 8.85104 30.5881C7.84226 29.5662 6.97441 28.4392 6.2475 27.207C5.53542 25.9597 4.97911 24.6298 4.57856 23.2172C4.19285 21.7896 4 20.3094 4 18.7766C4 17.2438 4.19285 15.7637 4.57856 14.3361C4.97911 12.9085 5.53542 11.5786 6.2475 10.3463C6.97441 9.09904 7.84226 7.96448 8.85104 6.94262C9.85981 5.92076 10.9724 5.04918 12.1889 4.32787C13.4202 3.59153 14.7331 3.028 16.1276 2.63729C17.5369 2.23156 18.9982 2.02869 20.5113 2.02869Z" fill="white"/>
<path d="M188.651 2.02869C190.624 2.02869 192.53 2.37432 194.37 3.06557C195.419 3.45119 196.41 3.93943 197.343 4.53028C198.576 5.31065 198.809 6.94917 198.059 8.19997V8.19997C197.018 9.93404 194.518 10.1215 192.656 9.33196V9.33196C191.381 8.77595 190.045 8.49795 188.651 8.49795C187.242 8.49795 185.921 8.76844 184.69 9.30942C183.459 9.85041 182.383 10.5867 181.463 11.5184C180.544 12.4351 179.817 13.5246 179.283 14.7869C178.749 16.0341 178.482 17.3641 178.482 18.7766C178.482 20.1892 178.749 21.5191 179.283 22.7664C179.817 23.9986 180.544 25.0806 181.463 26.0123C182.383 26.944 183.459 27.6803 184.69 28.2213C185.921 28.7623 187.242 29.0328 188.651 29.0328C190.045 29.0328 191.381 28.7623 192.656 28.2213C192.674 28.2135 192.692 28.2056 192.71 28.1976C194.556 27.3808 197.015 27.5928 198.054 29.323V29.323C198.806 30.5766 198.567 32.2181 197.33 32.9978C196.4 33.5838 195.414 34.0729 194.37 34.4652C192.53 35.1564 190.624 35.502 188.651 35.502C187.138 35.502 185.677 35.2992 184.267 34.8934C182.873 34.5027 181.56 33.9467 180.329 33.2254C179.112 32.4891 177.999 31.61 176.991 30.5881C175.982 29.5662 175.114 28.4392 174.387 27.207C173.675 25.9597 173.119 24.6298 172.718 23.2172C172.332 21.7896 172.14 20.3094 172.14 18.7766C172.14 17.2438 172.332 15.7637 172.718 14.3361C173.119 12.9085 173.675 11.5786 174.387 10.3463C175.114 9.09904 175.982 7.96448 176.991 6.94262C177.999 5.92076 179.112 5.04918 180.329 4.32787C181.56 3.59153 182.873 3.028 184.267 2.63729C185.677 2.23156 187.138 2.02869 188.651 2.02869Z" fill="white"/>
<path fill-rule="evenodd" clip-rule="evenodd" d="M44.3437 9.7377C45.1151 9.7377 45.8791 9.83538 46.6357 10.0307C47.3923 10.2261 48.1266 10.4966 48.8387 10.8422C49.5508 11.1878 50.2258 11.5936 50.8637 12.0594V12.0594C51.905 12.8026 53.3824 12.7273 54.1959 11.74L54.7478 11.0703C54.9373 10.8402 55.2198 10.707 55.5179 10.707V10.707C56.069 10.707 56.5158 11.1537 56.5158 11.7049V33.8343C56.5158 34.3694 56.082 34.8033 55.5468 34.8033V34.8033C55.2333 34.8033 54.9392 34.6516 54.7574 34.3962L54.0645 33.4229C53.3325 32.3946 51.8689 32.2442 50.8414 32.9775V32.9775C50.2035 33.4283 49.5285 33.8265 48.8165 34.1721C48.1044 34.5027 47.37 34.7657 46.6135 34.9611C45.8717 35.1564 45.1151 35.2541 44.3437 35.2541C42.6674 35.2541 41.0874 34.9686 39.6039 34.3975C38.1353 33.8265 36.8446 33 35.732 31.918C34.6342 30.821 33.7664 29.4836 33.1285 27.9057C32.4906 26.3279 32.1716 24.5321 32.1716 22.5184C32.1716 20.64 32.4906 18.9194 33.1285 17.3566C33.7664 15.7787 34.6342 14.4262 35.732 13.2992C36.8446 12.1721 38.1353 11.3005 39.6039 10.6844C41.0874 10.0533 42.6674 9.7377 44.3437 9.7377ZM44.3437 15.959C43.513 15.959 42.7267 16.1018 41.985 16.3873C41.258 16.6728 40.6201 17.0936 40.0712 17.6496C39.5372 18.2056 39.1144 18.8968 38.8028 19.7233C38.4913 20.5348 38.3355 21.4665 38.3355 22.5184C38.3355 23.5703 38.4913 24.5095 38.8028 25.3361C39.1144 26.1475 39.5372 26.8313 40.0712 27.3873C40.6201 27.9433 41.258 28.3641 41.985 28.6496C42.7267 28.9351 43.513 29.0779 44.3437 29.0779C45.1745 29.0779 45.9533 28.8975 46.6802 28.5369C47.422 28.1612 48.0673 27.6728 48.6162 27.0717C49.1651 26.4556 49.5953 25.7568 49.9068 24.9754C50.2332 24.179 50.3964 23.36 50.3964 22.5184C50.3964 21.6769 50.2332 20.8654 49.9068 20.084C49.5953 19.2876 49.1651 18.5888 48.6162 17.9877C48.0673 17.3716 47.422 16.8832 46.6802 16.5225C45.9533 16.1468 45.1745 15.959 44.3437 15.959Z" fill="white"/>
<path d="M129.437 24.0061C129.437 24.8176 129.556 25.5464 129.793 26.1926C130.045 26.8238 130.379 27.3572 130.795 27.793C131.21 28.2288 131.692 28.5594 132.241 28.7848C132.805 29.0102 133.405 29.1229 134.043 29.1229C134.666 29.1229 135.252 28.9802 135.801 28.6947C136.365 28.3941 136.855 28.0034 137.27 27.5225C137.685 27.0417 138.012 26.5007 138.249 25.8996C138.486 25.2835 138.605 24.6523 138.605 24.0061V13.6993C138.605 12.0218 139.965 10.6619 141.643 10.6619V10.6619C143.32 10.6619 144.68 12.0218 144.68 13.6993V33.8345C144.68 34.3696 144.246 34.8033 143.711 34.8033V34.8033C143.398 34.8033 143.103 34.6514 142.922 34.3958L142.389 33.6465C141.763 32.7652 140.506 32.6389 139.629 33.2705V33.2705C139.08 33.6612 138.501 34.0068 137.893 34.3074C137.285 34.5929 136.654 34.8183 136.002 34.9836C135.364 35.1639 134.711 35.2541 134.043 35.2541C132.575 35.2541 131.195 34.9911 129.904 34.4652C128.614 33.9392 127.479 33.1953 126.5 32.2336C125.536 31.2568 124.772 30.0772 124.208 28.6947C123.659 27.2971 123.384 25.7343 123.384 24.0061V13.6882C123.384 12.0168 124.739 10.6619 126.411 10.6619V10.6619C128.082 10.6619 129.437 12.0168 129.437 13.6882V24.0061Z" fill="white"/>
<path fill-rule="evenodd" clip-rule="evenodd" d="M224.099 9.7377C224.871 9.7377 225.635 9.83538 226.391 10.0307C227.148 10.2261 227.882 10.4966 228.594 10.8422C229.306 11.1878 229.981 11.5936 230.619 12.0594V12.0594C231.66 12.8026 233.138 12.7273 233.951 11.74L234.503 11.0703C234.693 10.8402 234.975 10.707 235.273 10.707V10.707C235.824 10.707 236.271 11.1537 236.271 11.7049V33.8342C236.271 34.3694 235.837 34.8033 235.302 34.8033V34.8033C234.989 34.8033 234.695 34.6516 234.513 34.3962L233.82 33.4229C233.088 32.3946 231.624 32.2442 230.597 32.9775V32.9775C229.959 33.4283 229.284 33.8265 228.572 34.1721C227.86 34.5027 227.125 34.7657 226.369 34.9611C225.627 35.1564 224.871 35.2541 224.099 35.2541C222.423 35.2541 220.843 34.9686 219.359 34.3975C217.891 33.8265 216.6 33 215.487 31.918C214.39 30.821 213.522 29.4836 212.884 27.9057C212.246 26.3279 211.927 24.5321 211.927 22.5184C211.927 20.64 212.246 18.9194 212.884 17.3566C213.522 15.7787 214.39 14.4262 215.487 13.2992C216.6 12.1721 217.891 11.3005 219.359 10.6844C220.843 10.0533 222.423 9.7377 224.099 9.7377ZM224.099 15.959C223.268 15.959 222.482 16.1018 221.74 16.3873C221.013 16.6728 220.376 17.0936 219.827 17.6496C219.293 18.2056 218.87 18.8968 218.558 19.7233C218.247 20.5348 218.091 21.4665 218.091 22.5184C218.091 23.5703 218.247 24.5095 218.558 25.3361C218.87 26.1475 219.293 26.8313 219.827 27.3873C220.376 27.9433 221.013 28.3641 221.74 28.6496C222.482 28.9351 223.268 29.0779 224.099 29.0779C224.93 29.0779 225.709 28.8975 226.436 28.5369C227.177 28.1612 227.823 27.6728 228.372 27.0717C228.92 26.4556 229.351 25.7568 229.662 24.9754C229.989 24.179 230.152 23.36 230.152 22.5184C230.152 21.6769 229.989 20.8654 229.662 20.084C229.351 19.2876 228.92 18.5888 228.372 17.9877C227.823 17.3716 227.177 16.8832 226.436 16.5225C225.709 16.1468 224.93 15.959 224.099 15.959Z" fill="white"/>
<path d="M82.3732 10.2336C83.6341 10.2336 84.8135 10.474 85.9113 10.9549C87.0239 11.4358 87.9882 12.097 88.8041 12.9385C89.6349 13.765 90.2876 14.7418 90.7624 15.8688C91.2371 16.9959 91.4744 18.1981 91.4744 19.4754V31.7769C91.4744 33.4483 90.1195 34.8033 88.4481 34.8033V34.8033C86.7767 34.8033 85.4218 33.4483 85.4218 31.7769V19.4754C85.4218 19.0546 85.3402 18.6564 85.177 18.2807C85.0286 17.905 84.8135 17.5744 84.5317 17.2889C84.2498 17.0034 83.9234 16.7855 83.5526 16.6352C83.1817 16.4699 82.7885 16.3873 82.3732 16.3873C81.9578 16.3873 81.5647 16.4699 81.1938 16.6352C80.8377 16.7855 80.5188 17.0034 80.2369 17.2889C79.9699 17.5744 79.7548 17.905 79.5916 18.2807C79.4433 18.6564 79.3691 19.0546 79.3691 19.4754V31.7658C79.3691 33.4433 78.0092 34.8033 76.3316 34.8033V34.8033C74.6541 34.8033 73.2942 33.4433 73.2942 31.7658V19.4754C73.2942 19.0546 73.2126 18.6564 73.0494 18.2807C72.901 17.905 72.6859 17.5744 72.4041 17.2889C72.1222 17.0034 71.7958 16.7855 71.425 16.6352C71.0541 16.4699 70.661 16.3873 70.2456 16.3873C69.8302 16.3873 69.4371 16.4699 69.0662 16.6352C68.7102 16.7855 68.3912 17.0034 68.1093 17.2889C67.8423 17.5744 67.6272 17.905 67.464 18.2807C67.3157 18.6564 67.2415 19.0546 67.2415 19.4754V31.7658C67.2415 33.4433 65.8816 34.8033 64.204 34.8033V34.8033C62.5265 34.8033 61.1666 33.4433 61.1666 31.7658V11.6759C61.1666 11.1159 61.6206 10.6619 62.1806 10.6619V10.6619C62.4698 10.6619 62.7453 10.7854 62.9377 11.0014L63.1526 11.2426C63.7802 11.9471 64.8485 12.0034 65.6605 11.5231C66.1092 11.2576 66.5768 11.0307 67.0635 10.8422C68.0871 10.4365 69.1478 10.2336 70.2456 10.2336C71.3582 10.2336 72.4412 10.444 73.4944 10.8648C74.0386 11.0791 74.5481 11.3734 75.023 11.7477C75.7404 12.3132 76.8392 12.2965 77.5666 11.7438V11.7438C78.0414 11.3832 78.5383 11.0902 79.0576 10.8648C79.5916 10.6393 80.1405 10.4816 80.7042 10.3914C81.268 10.2862 81.8243 10.2336 82.3732 10.2336Z" fill="white"/>
<path d="M168.401 13.7725C168.401 15.4656 167.029 16.8381 165.336 16.8381H156.096C155.68 16.8381 155.324 16.9884 155.027 17.2889C154.731 17.5895 154.582 17.9501 154.582 18.3709C154.582 18.8067 154.731 19.1824 155.027 19.4979C155.324 19.7985 155.68 19.9488 156.096 19.9488H162.415C163.454 19.9488 164.433 20.1291 165.353 20.4897C166.272 20.8354 167.073 21.3238 167.756 21.9549C168.438 22.5861 168.98 23.3449 169.38 24.2315C169.781 25.1182 169.981 26.0874 169.981 27.1393C169.981 28.2063 169.781 29.2056 169.38 30.1373C168.98 31.0539 168.438 31.8654 167.756 32.5717C167.073 33.263 166.272 33.8115 165.353 34.2172C164.433 34.6079 163.454 34.8033 162.415 34.8033H151.595C149.902 34.8033 148.53 33.4308 148.53 31.7377V31.7377C148.53 30.0446 149.902 28.6721 151.595 28.6721H162.415C162.831 28.6721 163.187 28.5219 163.483 28.2213C163.78 27.9208 163.928 27.5601 163.928 27.1393C163.928 26.7035 163.78 26.418 163.483 26.2828C163.187 26.1475 162.831 26.0799 162.415 26.0799H156.096C155.042 26.0799 154.056 25.877 153.136 25.4713C152.216 25.0656 151.415 24.5171 150.733 23.8258C150.05 23.1195 149.509 22.3005 149.108 21.3688C148.723 20.4371 148.53 19.4378 148.53 18.3709C148.53 17.3039 148.723 16.3046 149.108 15.3729C149.509 14.4412 150.05 13.6298 150.733 12.9385C151.415 12.2473 152.216 11.7063 153.136 11.3156C154.056 10.9098 155.042 10.707 156.096 10.707H165.336C167.029 10.707 168.401 12.0795 168.401 13.7725V13.7725Z" fill="white"/>
<path d="M208.545 31.7435C208.545 33.4334 207.175 34.8033 205.485 34.8033V34.8033C203.795 34.8033 202.425 33.4334 202.425 31.7435V4.11914C202.425 2.42931 203.795 1.05943 205.485 1.05943V1.05943C207.175 1.05943 208.545 2.42931 208.545 4.11914V31.7435Z" fill="white"/>
<path d="M247.041 31.7435C247.041 33.4334 245.672 34.8033 243.982 34.8033V34.8033C242.292 34.8033 240.922 33.4334 240.922 31.7435V13.7216C240.922 12.0318 242.292 10.6619 243.982 10.6619V10.6619C245.672 10.6619 247.041 12.0318 247.041 13.7216V31.7435Z" fill="white"/>
<path d="M272.899 10.2336C274.16 10.2336 275.339 10.474 276.437 10.9549C277.55 11.4358 278.514 12.097 279.33 12.9385C280.16 13.765 280.813 14.7418 281.288 15.8688C281.763 16.9959 282 18.1981 282 19.4754V31.7769C282 33.4483 280.645 34.8033 278.974 34.8033V34.8033C277.302 34.8033 275.947 33.4483 275.947 31.7769V19.4754C275.947 19.0546 275.866 18.6564 275.703 18.2807C275.554 17.905 275.339 17.5744 275.057 17.2889C274.775 17.0034 274.449 16.7855 274.078 16.6352C273.707 16.4699 273.314 16.3873 272.899 16.3873C272.483 16.3873 272.09 16.4699 271.719 16.6352C271.363 16.7855 271.044 17.0034 270.763 17.2889C270.495 17.5744 270.28 17.905 270.117 18.2807C269.969 18.6564 269.895 19.0546 269.895 19.4754V31.7658C269.895 33.4433 268.535 34.8033 266.857 34.8033V34.8033C265.18 34.8033 263.82 33.4434 263.82 31.7658V19.4754C263.82 19.0546 263.738 18.6564 263.575 18.2807C263.427 17.905 263.212 17.5744 262.93 17.2889C262.648 17.0034 262.321 16.7855 261.951 16.6352C261.58 16.4699 261.187 16.3873 260.771 16.3873C260.356 16.3873 259.963 16.4699 259.592 16.6352C259.236 16.7855 258.917 17.0034 258.635 17.2889C258.368 17.5744 258.153 17.905 257.99 18.2807C257.841 18.6564 257.767 19.0546 257.767 19.4754V31.7658C257.767 33.4433 256.407 34.8033 254.73 34.8033V34.8033C253.052 34.8033 251.692 33.4433 251.692 31.7658V11.6759C251.692 11.1159 252.146 10.6619 252.706 10.6619V10.6619C252.995 10.6619 253.271 10.7854 253.463 11.0014L253.678 11.2426C254.306 11.9471 255.374 12.0034 256.186 11.523C256.635 11.2576 257.102 11.0307 257.589 10.8422C258.613 10.4365 259.673 10.2336 260.771 10.2336C261.884 10.2336 262.967 10.444 264.02 10.8648C264.564 11.0791 265.074 11.3734 265.549 11.7477C266.266 12.3132 267.365 12.2965 268.092 11.7438V11.7438C268.567 11.3832 269.064 11.0902 269.583 10.8648C270.117 10.6393 270.666 10.4816 271.23 10.3914C271.794 10.2862 272.35 10.2336 272.899 10.2336Z" fill="white"/>
<path d="M243.993 0C244.557 0 245.083 0.112706 245.573 0.338116C246.077 0.548499 246.515 0.84153 246.886 1.21721C247.256 1.57787 247.546 2.01366 247.753 2.52459C247.976 3.02049 248.087 3.54645 248.087 4.10246C248.087 4.67349 247.976 5.20697 247.753 5.70287C247.546 6.19877 247.256 6.63456 246.886 7.01024C246.515 7.3709 246.077 7.66393 245.573 7.88934C245.083 8.09973 244.557 8.20492 243.993 8.20492C243.429 8.20492 242.895 8.09973 242.391 7.88934C241.901 7.66393 241.471 7.3709 241.1 7.01024C240.744 6.63456 240.455 6.19877 240.232 5.70287C240.024 5.20697 239.921 4.67349 239.921 4.10246C239.921 3.54645 240.024 3.02049 240.232 2.52459C240.455 2.01366 240.744 1.57787 241.1 1.21721C241.471 0.84153 241.901 0.548499 242.391 0.338116C242.895 0.112706 243.429 0 243.993 0Z" fill="#EDB03F"/>
</g>
<defs>
<filter id="filter0_d_14_977" x="0" y="0" width="286" height="52" filterUnits="userSpaceOnUse" color-interpolation-filters="sRGB">
<feFlood flood-opacity="0" result="BackgroundImageFix"/>
<feColorMatrix in="SourceAlpha" type="matrix" values="0 0 0 0 0 0 0 0 0 0 0 0 0 0 0 0 0 0 127 0" result="hardAlpha"/>
<feOffset dy="4"/>
<feGaussianBlur stdDeviation="2"/>
<feComposite in2="hardAlpha" operator="out"/>
<feColorMatrix type="matrix" values="0 0 0 0 0 0 0 0 0 0 0 0 0 0 0 0 0 0 0.25 0"/>
<feBlend mode="normal" in2="BackgroundImageFix" result="effect1_dropShadow_14_977"/>
<feBlend mode="normal" in="SourceGraphic" in2="effect1_dropShadow_14_977" result="shape"/>
</filter>
</defs>
</svg>
