<svg width="88" height="89" viewBox="0 0 88 89" fill="none" xmlns="http://www.w3.org/2000/svg">
<path d="M0 41.7313C0.229671 40.0178 0.413408 38.2974 0.689013 36.5886C3.41061 19.1777 17.1748 4.60629 34.2646 1.07953C46.4533 -1.43726 57.9414 0.369072 68.4006 7.31578C78.8598 14.2625 85.139 24.1602 87.3071 36.6211C87.8101 39.5117 87.8652 42.4905 87.9961 45.4437C88.088 47.6123 86.524 49.1957 84.5511 49.1818C82.5782 49.1679 81.1175 47.596 81.1428 45.395C81.2415 36.4028 78.7817 28.2465 73.249 21.1512C67.397 13.6426 59.7374 9.05478 50.422 7.53867C39.4115 5.73699 29.3428 8.1609 20.5647 15.2353C13.3002 21.0931 8.91353 28.7898 7.43445 38.0396C5.65909 49.1377 8.03848 59.2977 15.0021 68.1552C20.8243 75.557 28.4792 80.045 37.7051 81.4937C50.5667 83.5114 61.7057 79.843 71.0074 70.5815C71.9123 69.676 72.9068 69.07 74.2113 69.2627C75.6031 69.4693 76.5838 70.2541 77.0294 71.6193C77.4749 72.9845 77.1373 74.1872 76.1589 75.2111C68.5682 83.1739 58.3426 88.0322 47.434 88.8584C47.2099 88.8908 46.9881 88.9382 46.7702 89H41.2604C41.0307 88.9536 40.8194 88.8932 40.5966 88.8607C38.502 88.5565 36.3868 88.3662 34.3174 87.932C17.161 84.3983 3.42669 69.8849 0.689013 52.4299C0.420298 50.7258 0.229671 49.0053 0 47.2919V41.7313Z" fill="white"/>
<path d="M56.4564 59.9413C54.192 61.4155 51.6252 62.3492 48.9508 62.6717C45.0617 63.1202 41.1376 62.2143 37.8266 60.1036C34.5157 57.993 32.0159 54.8038 30.7402 51.0628C27.4926 41.5622 32.9818 31.1584 42.5912 28.6068C44.8754 27.9978 47.2591 27.8711 49.5939 28.2344C51.9287 28.5977 54.1644 29.4433 56.1617 30.7185C58.159 31.9937 59.875 33.6711 61.2028 35.6462C62.5306 37.6213 63.4418 39.8517 63.8794 42.1984C64.6932 46.3599 63.9291 50.6787 61.7389 54.2971C61.3989 54.8752 61.4908 55.1654 61.9203 55.5972C66.552 60.2516 71.173 64.9168 75.7832 69.5928C77.577 71.4084 77.7446 73.505 76.2242 75.0095C74.7038 76.514 72.6942 76.312 70.928 74.5289L56.9525 60.4033C56.8124 60.2617 56.6608 60.1316 56.4564 59.9413ZM46.9986 55.848C49.0378 55.8484 51.0314 55.2378 52.7275 54.0933C54.4236 52.9488 55.746 51.3217 56.5276 49.4176C57.3092 47.5136 57.515 45.4181 57.119 43.3958C56.7229 41.3736 55.7428 39.5155 54.3024 38.0561C52.8621 36.5968 51.0261 35.6019 49.0266 35.197C47.0271 34.7921 44.9537 34.9955 43.0685 35.7814C41.1833 36.5674 39.5708 37.9006 38.4349 39.6126C37.2989 41.3246 36.6904 43.3386 36.6863 45.4001C36.6906 48.1657 37.7777 50.8172 39.71 52.7749C41.6424 54.7327 44.2628 55.8376 46.9986 55.848Z" fill="white"/>
</svg>
